<?xml version="1.0" standalone="no"?>
<!DOCTYPE svg PUBLIC "-//W3C//DTD SVG 20010904//EN"
 "http://www.w3.org/TR/2001/REC-SVG-20010904/DTD/svg10.dtd">
<svg version="1.0" xmlns="http://www.w3.org/2000/svg"
 width="960.000000pt" height="960.000000pt" viewBox="0 0 960.000000 960.000000"
 preserveAspectRatio="xMidYMid meet">
<metadata>
Created by potrace 1.11, written by Peter Selinger 2001-2013
</metadata>
<g transform="translate(0.000000,960.000000) scale(0.100000,-0.100000)"
fill="#000000" stroke="none">
<path d="M5416 8018 c-21 -81 -131 -532 -176 -728 -23 -96 -44 -182 -47 -190
-5 -13 -10 -30 -17 -65 -1 -5 -4 -14 -7 -20 -3 -5 -5 -17 -4 -25 1 -8 -3 -26
-8 -40 -5 -14 -11 -38 -13 -55 -2 -16 -19 -91 -37 -165 l-34 -135 -90 -3 -91
-3 -22 93 c-27 119 -77 413 -84 500 -6 79 -33 306 -46 398 -5 36 -11 83 -14
105 -19 154 -35 227 -49 222 -13 -4 -23 -40 -32 -114 -3 -32 -8 -71 -10 -88
-2 -16 -6 -79 -10 -140 -4 -60 -8 -137 -11 -170 -2 -33 -6 -132 -9 -220 -3
-88 -8 -187 -10 -220 -2 -33 -5 -125 -6 -205 -4 -194 -2 -186 -54 -188 -42 -2
-43 -2 -54 40 -6 24 -14 52 -16 63 -2 11 -13 56 -24 99 -11 43 -20 82 -19 85
1 3 -1 13 -5 21 -4 12 -59 257 -72 320 -8 40 -20 106 -21 115 0 6 -3 17 -7 25
-3 8 -10 44 -17 80 -7 36 -14 72 -17 80 -4 8 -8 24 -10 35 -16 93 -78 334 -84
328 -10 -11 -17 -62 -25 -193 -6 -104 -7 -157 -5 -285 1 -22 1 -47 1 -55 1
-167 10 -597 14 -697 l6 -132 -37 -10 c-20 -6 -38 -9 -39 -8 0 1 -21 34 -46
72 -111 172 -188 297 -218 351 -39 73 -67 111 -75 102 -9 -8 17 -129 50 -238
46 -152 94 -345 87 -352 -9 -8 -183 -78 -195 -78 -8 0 -45 40 -82 91 -11 14
-87 117 -170 227 -82 110 -168 225 -190 257 -22 32 -65 92 -95 134 -31 42
-106 149 -169 239 -62 89 -116 162 -119 162 -4 0 -13 14 -20 30 -8 17 -18 28
-22 25 -5 -3 -11 4 -15 15 -11 34 -27 23 -20 -12 4 -18 10 -35 14 -38 4 -3 14
-27 23 -55 9 -27 35 -95 58 -150 23 -55 68 -164 100 -242 70 -167 127 -293
245 -538 113 -235 147 -314 141 -324 -3 -5 -37 -30 -75 -56 l-69 -47 -192 138
c-357 259 -430 305 -430 276 0 -5 8 -18 18 -30 9 -11 31 -37 49 -59 17 -21 41
-49 53 -63 25 -29 80 -93 171 -200 62 -73 99 -115 148 -168 l23 -25 -38 -38
c-22 -21 -43 -38 -48 -39 -4 0 -58 30 -120 66 -61 37 -147 88 -191 113 -261
154 -402 239 -495 300 -360 234 -467 299 -502 305 -7 1 -19 5 -26 10 -24 15 2
-25 58 -86 91 -101 255 -262 445 -438 194 -179 226 -209 335 -314 63 -61 147
-140 187 -175 l72 -63 -57 -91 c-30 -51 -57 -94 -58 -95 -4 -6 -850 157 -996
192 -57 14 -78 8 -78 -19 0 -7 44 -36 98 -65 53 -29 113 -63 133 -76 20 -12
78 -43 130 -69 52 -26 146 -78 209 -115 63 -37 167 -95 230 -129 63 -34 118
-65 122 -69 3 -4 -1 -42 -9 -85 l-16 -78 -669 2 c-368 1 -672 -1 -675 -5 -3
-3 -15 -1 -26 5 -14 8 -18 8 -13 0 4 -6 2 -11 -3 -11 -6 0 -11 6 -12 13 0 11
-17 -19 -18 -35 -1 -6 60 -22 129 -34 14 -2 48 -9 75 -15 28 -6 61 -13 75 -15
14 -3 41 -9 60 -14 19 -5 55 -11 80 -15 37 -5 67 -10 110 -20 3 -1 25 -5 50
-9 25 -5 54 -10 65 -12 11 -2 49 -9 85 -14 36 -6 76 -13 90 -16 14 -2 86 -14
160 -25 74 -11 149 -22 165 -25 17 -3 59 -7 94 -11 101 -9 156 -25 155 -46 -1
-9 1 -17 5 -17 3 0 6 -19 6 -42 0 -24 4 -71 8 -105 l8 -61 -333 -165 c-183
-91 -362 -177 -398 -192 -35 -15 -76 -36 -90 -47 l-25 -20 75 7 c211 18 431
42 565 60 55 8 126 16 158 19 72 6 68 -1 -45 -82 -43 -30 -78 -59 -78 -64 0
-5 -5 -6 -10 -3 -6 3 -13 -1 -16 -9 -3 -9 -12 -16 -19 -16 -7 0 -15 -4 -17 -8
-1 -4 -32 -30 -68 -57 -36 -27 -75 -60 -86 -72 -12 -13 -24 -23 -28 -23 -3 0
-24 -18 -46 -40 -22 -22 -45 -40 -51 -40 -5 0 -7 -5 -4 -10 4 -6 12 -7 18 -3
7 4 14 8 17 8 15 3 259 83 340 112 98 35 108 39 125 43 6 1 16 6 23 12 6 6 12
7 12 4 0 -4 10 -1 22 6 13 6 28 13 33 14 6 1 31 9 58 17 26 8 47 11 47 6 0 -5
-35 -32 -77 -60 -43 -28 -97 -66 -119 -85 -23 -18 -44 -30 -48 -27 -3 4 -6 1
-6 -5 0 -6 -35 -34 -77 -63 -43 -28 -121 -82 -174 -120 -53 -37 -139 -96 -190
-131 -52 -35 -100 -69 -107 -75 -7 -7 -17 -13 -22 -13 -5 0 -15 -6 -22 -13 -7
-7 -74 -58 -148 -113 -144 -107 -210 -164 -210 -183 0 -6 -5 -11 -11 -11 -5 0
-8 -4 -4 -10 6 -10 55 7 66 23 3 5 8 7 10 6 4 -3 98 47 209 111 79 46 125 71
255 140 99 53 220 120 445 248 63 35 121 65 128 65 6 0 12 4 12 9 0 4 6 8 14
8 8 0 16 5 18 11 2 5 12 11 21 13 10 1 23 9 28 17 5 8 9 10 9 4 0 -6 3 -6 8 1
4 5 42 28 84 49 60 31 80 37 89 28 14 -14 -12 -57 -134 -222 -77 -104 -387
-557 -424 -619 -31 -51 -61 -116 -56 -121 10 -12 153 99 362 280 19 16 36 29
37 29 7 0 172 134 235 191 37 33 89 76 115 96 27 20 51 39 54 42 3 4 22 19 43
35 42 31 52 29 106 -15 22 -18 23 -23 12 -41 -28 -45 -51 -89 -51 -98 0 -18
38 -11 94 17 31 15 58 25 60 22 3 -3 -2 -24 -10 -47 -8 -24 -16 -51 -18 -60
-4 -20 2 -6 -91 -242 -40 -102 -81 -207 -90 -235 -10 -27 -47 -123 -82 -213
-55 -140 -153 -420 -153 -436 0 -14 19 -4 25 13 3 10 35 63 72 117 87 129 219
331 260 397 18 29 93 149 166 267 73 118 147 236 163 262 16 26 33 48 39 48
23 0 145 -54 145 -66 0 -7 -23 -93 -52 -191 -28 -98 -51 -194 -52 -213 -2 -66
14 -50 152 143 56 79 75 103 148 184 12 13 28 21 35 19 8 -2 26 -7 40 -10 24
-5 27 -12 33 -58 9 -76 14 -164 21 -323 3 -77 8 -185 11 -240 3 -55 7 -136 9
-180 2 -44 4 -87 4 -95 2 -19 40 28 41 48 0 8 9 27 21 43 11 16 18 29 14 29
-3 0 1 10 10 23 8 13 12 27 8 30 -3 4 -1 7 5 7 7 0 12 4 12 9 0 5 5 22 12 38
6 15 12 30 13 33 0 3 8 21 17 40 32 68 154 426 149 438 -1 1 5 18 13 37 9 20
15 39 14 43 -1 4 6 8 15 10 14 3 17 -6 18 -60 1 -35 3 -74 6 -88 2 -14 6 -279
8 -590 2 -311 4 -573 4 -582 1 -11 9 -18 21 -18 19 0 34 37 46 110 2 14 7 36
11 50 3 14 7 32 8 40 11 65 20 109 41 205 13 61 53 290 90 510 36 220 69 403
72 406 4 4 34 10 68 13 l61 7 35 -123 c73 -250 151 -503 159 -512 17 -19 23 8
25 117 2 110 11 268 19 337 2 19 5 70 6 112 1 43 5 82 8 87 3 5 41 15 83 23
l77 15 27 -66 c38 -97 135 -364 225 -626 79 -229 100 -277 93 -214 -25 234
-51 947 -35 977 6 11 30 27 54 35 l44 15 79 -152 c43 -83 104 -203 137 -266
32 -63 62 -122 67 -130 16 -26 146 -293 160 -330 8 -19 16 -37 19 -40 8 -7 54
-104 51 -109 -1 -2 4 -7 12 -12 7 -5 13 -12 13 -16 1 -12 35 -73 41 -73 3 0 3
4 0 8 -6 10 -13 49 -21 117 -9 83 -24 149 -87 390 -5 22 -12 51 -14 65 -4 28
-12 65 -14 65 -1 0 -4 14 -6 30 -3 17 -34 146 -69 288 -36 142 -65 268 -65
281 0 17 10 27 38 40 21 10 70 37 108 61 l69 44 70 -67 c38 -37 79 -76 91 -88
20 -21 56 -44 68 -44 3 0 -3 24 -15 53 -11 28 -22 57 -23 62 -2 6 -6 18 -9 28
-4 9 -10 25 -14 35 -3 9 -14 38 -23 64 l-16 46 70 56 c39 30 89 73 111 95 47
47 55 49 82 19 30 -34 211 -207 258 -247 22 -20 68 -58 100 -86 32 -27 93 -81
134 -119 42 -38 139 -120 216 -182 77 -62 154 -124 170 -138 17 -14 35 -29 40
-33 6 -5 44 -38 85 -74 86 -75 209 -174 260 -209 33 -23 32 -21 -16 35 -28 33
-86 105 -129 160 -44 55 -88 110 -100 122 -11 12 -25 28 -30 35 -6 7 -26 33
-45 58 -19 25 -39 50 -45 57 -13 16 -22 28 -65 83 -19 25 -37 47 -40 50 -3 3
-68 84 -145 180 -77 96 -146 181 -152 188 -7 7 -13 17 -13 21 0 4 -8 16 -17
27 -10 10 -38 46 -63 79 -25 33 -48 62 -51 65 -12 9 -150 185 -156 197 -2 7 8
29 23 50 16 21 29 39 30 41 2 5 84 -33 304 -140 124 -61 281 -137 350 -170
192 -92 731 -319 748 -316 9 2 -9 19 -44 42 -115 75 -455 318 -478 341 -8 8
-19 15 -24 15 -6 0 -12 3 -14 8 -6 13 -325 249 -567 419 -30 21 -68 50 -84 64
-28 24 -29 27 -18 62 7 20 18 40 24 44 6 4 187 9 402 11 396 4 486 9 492 28 3
10 -70 48 -97 49 -8 0 -19 3 -25 6 -5 4 -46 17 -90 29 -190 54 -329 95 -463
137 l-143 45 7 67 c4 36 8 108 8 160 l1 94 270 69 c149 37 283 70 299 73 16 3
32 8 36 10 3 2 18 6 33 9 84 18 98 21 117 29 8 4 31 9 50 11 19 3 35 5 35 6 0
2 17 6 55 14 14 3 36 8 50 11 14 4 34 8 45 10 80 15 448 109 533 136 18 6 30
14 27 19 -5 9 -265 6 -450 -4 -55 -3 -147 -8 -205 -11 -103 -6 -190 -11 -300
-20 -30 -2 -91 -7 -135 -10 -175 -13 -204 -15 -320 -26 -66 -6 -137 -9 -159
-7 l-38 3 -28 80 c-15 44 -36 98 -48 120 -19 38 -19 42 -4 62 10 12 42 41 74
65 65 51 159 131 202 172 41 39 21 47 -74 31 -41 -7 -102 -16 -135 -19 l-60
-7 39 33 c72 60 270 223 321 263 114 91 263 219 356 306 l51 48 -35 -2 c-19
-1 -33 -5 -31 -9 2 -3 -13 -12 -33 -18 -21 -7 -42 -16 -47 -21 -6 -5 -16 -9
-23 -9 -7 0 -49 -18 -94 -40 -45 -22 -87 -40 -92 -40 -6 0 -18 -6 -26 -13 -9
-7 -47 -27 -86 -44 -38 -18 -97 -44 -130 -58 -33 -15 -121 -56 -195 -92 -74
-35 -139 -65 -145 -66 -5 -1 -16 -8 -23 -14 -7 -7 -20 -13 -28 -13 -8 0 -14
-5 -14 -11 0 -5 -4 -8 -8 -5 -5 3 -23 -4 -41 -15 l-33 -20 -57 53 c-31 29 -77
71 -103 93 l-48 40 46 70 c87 131 78 153 -28 73 -38 -29 -74 -52 -79 -50 -5 1
-9 -2 -9 -7 0 -5 -7 -12 -16 -15 -25 -10 -12 28 43 123 27 45 60 103 75 129
15 26 31 54 35 62 6 13 22 40 80 135 15 25 118 205 151 265 26 47 90 160 107
188 116 194 215 379 230 430 8 27 -5 28 -31 3 -82 -79 -264 -273 -329 -351
-44 -52 -86 -101 -93 -109 -7 -7 -46 -52 -85 -100 -40 -47 -79 -93 -87 -101
-8 -8 -51 -60 -95 -115 -43 -55 -82 -102 -85 -105 -3 -3 -19 -23 -35 -45 -17
-22 -32 -42 -35 -45 -3 -3 -25 -32 -49 -65 -57 -78 -109 -128 -124 -122 -7 3
-49 21 -93 39 l-81 34 12 35 c8 18 37 102 65 184 28 83 55 159 60 170 5 11 21
54 35 95 32 89 62 174 106 290 47 128 94 279 87 285 -11 11 -34 -7 -59 -48
-67 -107 -207 -352 -319 -557 -67 -124 -143 -259 -167 -300 l-45 -75 6 91 c4
50 8 100 11 113 2 12 7 49 10 82 5 50 4 59 -10 59 -8 0 -18 -8 -22 -17 -7 -19
-62 -118 -125 -225 -41 -70 -52 -76 -106 -62 -20 6 -22 11 -17 48 8 56 12 154
19 401 4 116 9 271 12 345 9 190 14 445 13 713 0 35 -19 15 -33 -35z"/>
</g>
</svg>
